<svg width="30" height="23" viewBox="0 0 30 23" fill="none" xmlns="http://www.w3.org/2000/svg">
<path d="M5.33333 22.6667V10.4667L1.6 13.3333L0 11.2L14.6667 0L20 4.06667V1.33333H24V7.13333L29.3333 11.2L27.7333 13.3333L24 10.4667V22.6667H16V14.6667H13.3333V22.6667H5.33333ZM8 20H10.6667V12H18.6667V20H21.3333V8.43333L14.6667 3.36667L8 8.43333V20ZM12 9.36667H17.3333C17.3333 8.65556 17.0667 8.07222 16.5333 7.61667C16 7.16111 15.3778 6.93333 14.6667 6.93333C13.9556 6.93333 13.3333 7.16111 12.8 7.61667C12.2667 8.07222 12 8.65556 12 9.36667ZM10.6667 20V12H14.6667H18.6667V20V12H10.6667V20Z" fill="#006B5F"/>
</svg>
